<mxfile host="Electron" modified="2023-11-04T04:58:20.270Z" agent="Mozilla/5.0 (Windows NT 10.0; Win64; x64) AppleWebKit/537.36 (KHTML, like Gecko) draw.io/21.6.8 Chrome/114.0.5735.289 Electron/25.5.0 Safari/537.36" etag="mvrPKZl_2ZYYNMoxz5DD" version="21.6.8" type="device">
  <diagram name="Страница — 1" id="VjvKcO8ryV0LRnuHkB8O">
    <mxGraphModel dx="1050" dy="629" grid="0" gridSize="10" guides="1" tooltips="1" connect="1" arrows="1" fold="1" page="1" pageScale="1" pageWidth="827" pageHeight="1169" math="0" shadow="0">
      <root>
        <mxCell id="0" />
        <mxCell id="1" parent="0" />
        <mxCell id="dO7zKge_xhxy4rsGCmZ1-10" style="rounded=0;orthogonalLoop=1;jettySize=auto;html=1;entryX=0.5;entryY=1;entryDx=0;entryDy=0;endArrow=none;endFill=0;" parent="1" target="dO7zKge_xhxy4rsGCmZ1-5" edge="1">
          <mxGeometry relative="1" as="geometry">
            <mxPoint x="230" y="340" as="sourcePoint" />
          </mxGeometry>
        </mxCell>
        <mxCell id="dO7zKge_xhxy4rsGCmZ1-1" value="Пользователь" style="shape=umlActor;verticalLabelPosition=bottom;verticalAlign=top;html=1;outlineConnect=0;" parent="1" vertex="1">
          <mxGeometry x="240" y="320" width="30" height="60" as="geometry" />
        </mxCell>
        <mxCell id="dO7zKge_xhxy4rsGCmZ1-2" value="Администратор" style="shape=umlActor;verticalLabelPosition=bottom;verticalAlign=top;html=1;outlineConnect=0;" parent="1" vertex="1">
          <mxGeometry x="350" y="420" width="30" height="60" as="geometry" />
        </mxCell>
        <mxCell id="dO7zKge_xhxy4rsGCmZ1-5" value="Авторпизация в системе" style="ellipse;whiteSpace=wrap;html=1;" parent="1" vertex="1">
          <mxGeometry x="120" y="170" width="120" height="60" as="geometry" />
        </mxCell>
        <mxCell id="dO7zKge_xhxy4rsGCmZ1-6" value="Просмотр активных лицензий" style="ellipse;whiteSpace=wrap;html=1;" parent="1" vertex="1">
          <mxGeometry x="30" y="250" width="130" height="70" as="geometry" />
        </mxCell>
        <mxCell id="dO7zKge_xhxy4rsGCmZ1-7" value="Получение уведомления о истечении лицензии" style="ellipse;whiteSpace=wrap;html=1;" parent="1" vertex="1">
          <mxGeometry x="30" y="360" width="130" height="80" as="geometry" />
        </mxCell>
        <mxCell id="dO7zKge_xhxy4rsGCmZ1-8" value="Получения доступа к ПО с активной лицензией" style="ellipse;whiteSpace=wrap;html=1;" parent="1" vertex="1">
          <mxGeometry x="80" y="480" width="140" height="80" as="geometry" />
        </mxCell>
        <mxCell id="dO7zKge_xhxy4rsGCmZ1-11" style="rounded=0;orthogonalLoop=1;jettySize=auto;html=1;entryX=1;entryY=1;entryDx=0;entryDy=0;endArrow=none;endFill=0;" parent="1" target="dO7zKge_xhxy4rsGCmZ1-6" edge="1">
          <mxGeometry relative="1" as="geometry">
            <mxPoint x="220" y="350" as="sourcePoint" />
            <mxPoint x="190" y="240" as="targetPoint" />
          </mxGeometry>
        </mxCell>
        <mxCell id="dO7zKge_xhxy4rsGCmZ1-12" style="rounded=0;orthogonalLoop=1;jettySize=auto;html=1;entryX=1;entryY=0.5;entryDx=0;entryDy=0;endArrow=none;endFill=0;" parent="1" target="dO7zKge_xhxy4rsGCmZ1-7" edge="1">
          <mxGeometry relative="1" as="geometry">
            <mxPoint x="220" y="360" as="sourcePoint" />
            <mxPoint x="151" y="320" as="targetPoint" />
          </mxGeometry>
        </mxCell>
        <mxCell id="dO7zKge_xhxy4rsGCmZ1-13" style="rounded=0;orthogonalLoop=1;jettySize=auto;html=1;entryX=0.5;entryY=0;entryDx=0;entryDy=0;endArrow=none;endFill=0;" parent="1" target="dO7zKge_xhxy4rsGCmZ1-8" edge="1">
          <mxGeometry relative="1" as="geometry">
            <mxPoint x="230" y="360" as="sourcePoint" />
            <mxPoint x="170" y="410" as="targetPoint" />
          </mxGeometry>
        </mxCell>
        <mxCell id="dO7zKge_xhxy4rsGCmZ1-27" style="rounded=0;orthogonalLoop=1;jettySize=auto;html=1;exitX=0.5;exitY=0;exitDx=0;exitDy=0;entryX=0.5;entryY=1;entryDx=0;entryDy=0;" parent="1" source="dO7zKge_xhxy4rsGCmZ1-14" target="dO7zKge_xhxy4rsGCmZ1-20" edge="1">
          <mxGeometry relative="1" as="geometry" />
        </mxCell>
        <mxCell id="dO7zKge_xhxy4rsGCmZ1-28" value="Include" style="edgeLabel;html=1;align=center;verticalAlign=middle;resizable=0;points=[];" parent="dO7zKge_xhxy4rsGCmZ1-27" vertex="1" connectable="0">
          <mxGeometry x="0.2304" relative="1" as="geometry">
            <mxPoint as="offset" />
          </mxGeometry>
        </mxCell>
        <mxCell id="dO7zKge_xhxy4rsGCmZ1-30" style="rounded=0;orthogonalLoop=1;jettySize=auto;html=1;exitX=0.653;exitY=0.024;exitDx=0;exitDy=0;entryX=0;entryY=1;entryDx=0;entryDy=0;exitPerimeter=0;" parent="1" source="dO7zKge_xhxy4rsGCmZ1-14" target="dO7zKge_xhxy4rsGCmZ1-21" edge="1">
          <mxGeometry relative="1" as="geometry" />
        </mxCell>
        <mxCell id="dO7zKge_xhxy4rsGCmZ1-31" value="Include" style="edgeLabel;html=1;align=center;verticalAlign=middle;resizable=0;points=[];" parent="dO7zKge_xhxy4rsGCmZ1-30" vertex="1" connectable="0">
          <mxGeometry x="-0.0837" y="1" relative="1" as="geometry">
            <mxPoint as="offset" />
          </mxGeometry>
        </mxCell>
        <mxCell id="dO7zKge_xhxy4rsGCmZ1-14" value="Упраление поставщиками" style="ellipse;whiteSpace=wrap;html=1;" parent="1" vertex="1">
          <mxGeometry x="370" y="280" width="120" height="60" as="geometry" />
        </mxCell>
        <mxCell id="dO7zKge_xhxy4rsGCmZ1-15" value="Управление лицензиями" style="ellipse;whiteSpace=wrap;html=1;" parent="1" vertex="1">
          <mxGeometry x="470" y="390" width="120" height="60" as="geometry" />
        </mxCell>
        <mxCell id="dO7zKge_xhxy4rsGCmZ1-16" value="Авторизация в системе" style="ellipse;whiteSpace=wrap;html=1;" parent="1" vertex="1">
          <mxGeometry x="410" y="540" width="120" height="60" as="geometry" />
        </mxCell>
        <mxCell id="dO7zKge_xhxy4rsGCmZ1-17" style="rounded=0;orthogonalLoop=1;jettySize=auto;html=1;endArrow=none;endFill=0;exitX=0.5;exitY=0;exitDx=0;exitDy=0;" parent="1" source="dO7zKge_xhxy4rsGCmZ1-16" edge="1">
          <mxGeometry relative="1" as="geometry">
            <mxPoint x="130" y="450" as="sourcePoint" />
            <mxPoint x="400" y="470" as="targetPoint" />
          </mxGeometry>
        </mxCell>
        <mxCell id="dO7zKge_xhxy4rsGCmZ1-18" style="rounded=0;orthogonalLoop=1;jettySize=auto;html=1;endArrow=none;endFill=0;exitX=0;exitY=0.5;exitDx=0;exitDy=0;" parent="1" source="dO7zKge_xhxy4rsGCmZ1-15" edge="1">
          <mxGeometry relative="1" as="geometry">
            <mxPoint x="480" y="550" as="sourcePoint" />
            <mxPoint x="400" y="460" as="targetPoint" />
          </mxGeometry>
        </mxCell>
        <mxCell id="dO7zKge_xhxy4rsGCmZ1-19" style="rounded=0;orthogonalLoop=1;jettySize=auto;html=1;endArrow=none;endFill=0;exitX=0.5;exitY=1;exitDx=0;exitDy=0;" parent="1" source="dO7zKge_xhxy4rsGCmZ1-14" edge="1">
          <mxGeometry relative="1" as="geometry">
            <mxPoint x="480" y="430" as="sourcePoint" />
            <mxPoint x="390" y="450" as="targetPoint" />
          </mxGeometry>
        </mxCell>
        <mxCell id="dO7zKge_xhxy4rsGCmZ1-20" value="Добавление поставщика" style="ellipse;whiteSpace=wrap;html=1;" parent="1" vertex="1">
          <mxGeometry x="320" y="160" width="120" height="60" as="geometry" />
        </mxCell>
        <mxCell id="dO7zKge_xhxy4rsGCmZ1-21" value="Удаление поставщика" style="ellipse;whiteSpace=wrap;html=1;" parent="1" vertex="1">
          <mxGeometry x="470" y="160" width="120" height="60" as="geometry" />
        </mxCell>
        <mxCell id="dO7zKge_xhxy4rsGCmZ1-22" value="Изменение данных о поставщике" style="ellipse;whiteSpace=wrap;html=1;" parent="1" vertex="1">
          <mxGeometry x="540" y="230" width="130" height="60" as="geometry" />
        </mxCell>
        <mxCell id="dO7zKge_xhxy4rsGCmZ1-23" value="Отзыв лицензии" style="ellipse;whiteSpace=wrap;html=1;" parent="1" vertex="1">
          <mxGeometry x="630" y="310" width="120" height="60" as="geometry" />
        </mxCell>
        <mxCell id="dO7zKge_xhxy4rsGCmZ1-24" value="Продление лицензии" style="ellipse;whiteSpace=wrap;html=1;" parent="1" vertex="1">
          <mxGeometry x="670" y="390" width="120" height="60" as="geometry" />
        </mxCell>
        <mxCell id="dO7zKge_xhxy4rsGCmZ1-25" value="Выдача лицензии" style="ellipse;whiteSpace=wrap;html=1;" parent="1" vertex="1">
          <mxGeometry x="590" y="550" width="120" height="60" as="geometry" />
        </mxCell>
        <mxCell id="dO7zKge_xhxy4rsGCmZ1-26" value="Изменение данных лицензии" style="ellipse;whiteSpace=wrap;html=1;" parent="1" vertex="1">
          <mxGeometry x="650" y="470" width="120" height="60" as="geometry" />
        </mxCell>
        <mxCell id="dO7zKge_xhxy4rsGCmZ1-32" style="rounded=0;orthogonalLoop=1;jettySize=auto;html=1;exitX=1;exitY=0;exitDx=0;exitDy=0;entryX=0;entryY=0.5;entryDx=0;entryDy=0;" parent="1" source="dO7zKge_xhxy4rsGCmZ1-14" target="dO7zKge_xhxy4rsGCmZ1-22" edge="1">
          <mxGeometry relative="1" as="geometry">
            <mxPoint x="458" y="291" as="sourcePoint" />
            <mxPoint x="498" y="221" as="targetPoint" />
          </mxGeometry>
        </mxCell>
        <mxCell id="dO7zKge_xhxy4rsGCmZ1-33" value="Include" style="edgeLabel;html=1;align=center;verticalAlign=middle;resizable=0;points=[];" parent="dO7zKge_xhxy4rsGCmZ1-32" vertex="1" connectable="0">
          <mxGeometry x="-0.0837" y="1" relative="1" as="geometry">
            <mxPoint as="offset" />
          </mxGeometry>
        </mxCell>
        <mxCell id="dO7zKge_xhxy4rsGCmZ1-34" style="rounded=0;orthogonalLoop=1;jettySize=auto;html=1;exitX=1;exitY=0;exitDx=0;exitDy=0;entryX=0;entryY=0.5;entryDx=0;entryDy=0;" parent="1" source="dO7zKge_xhxy4rsGCmZ1-15" target="dO7zKge_xhxy4rsGCmZ1-23" edge="1">
          <mxGeometry relative="1" as="geometry">
            <mxPoint x="468" y="301" as="sourcePoint" />
            <mxPoint x="508" y="231" as="targetPoint" />
          </mxGeometry>
        </mxCell>
        <mxCell id="dO7zKge_xhxy4rsGCmZ1-35" value="Include" style="edgeLabel;html=1;align=center;verticalAlign=middle;resizable=0;points=[];" parent="dO7zKge_xhxy4rsGCmZ1-34" vertex="1" connectable="0">
          <mxGeometry x="-0.0837" y="1" relative="1" as="geometry">
            <mxPoint as="offset" />
          </mxGeometry>
        </mxCell>
        <mxCell id="dO7zKge_xhxy4rsGCmZ1-36" style="rounded=0;orthogonalLoop=1;jettySize=auto;html=1;exitX=0.989;exitY=0.374;exitDx=0;exitDy=0;entryX=0;entryY=0.5;entryDx=0;entryDy=0;exitPerimeter=0;" parent="1" source="dO7zKge_xhxy4rsGCmZ1-15" target="dO7zKge_xhxy4rsGCmZ1-24" edge="1">
          <mxGeometry relative="1" as="geometry">
            <mxPoint x="582" y="409" as="sourcePoint" />
            <mxPoint x="640" y="350" as="targetPoint" />
          </mxGeometry>
        </mxCell>
        <mxCell id="dO7zKge_xhxy4rsGCmZ1-37" value="Include" style="edgeLabel;html=1;align=center;verticalAlign=middle;resizable=0;points=[];" parent="dO7zKge_xhxy4rsGCmZ1-36" vertex="1" connectable="0">
          <mxGeometry x="-0.0837" y="1" relative="1" as="geometry">
            <mxPoint as="offset" />
          </mxGeometry>
        </mxCell>
        <mxCell id="dO7zKge_xhxy4rsGCmZ1-38" style="rounded=0;orthogonalLoop=1;jettySize=auto;html=1;exitX=1;exitY=1;exitDx=0;exitDy=0;entryX=0.025;entryY=0.557;entryDx=0;entryDy=0;entryPerimeter=0;" parent="1" source="dO7zKge_xhxy4rsGCmZ1-15" target="dO7zKge_xhxy4rsGCmZ1-26" edge="1">
          <mxGeometry relative="1" as="geometry">
            <mxPoint x="592" y="419" as="sourcePoint" />
            <mxPoint x="650" y="360" as="targetPoint" />
          </mxGeometry>
        </mxCell>
        <mxCell id="dO7zKge_xhxy4rsGCmZ1-39" value="Include" style="edgeLabel;html=1;align=center;verticalAlign=middle;resizable=0;points=[];" parent="dO7zKge_xhxy4rsGCmZ1-38" vertex="1" connectable="0">
          <mxGeometry x="-0.0837" y="1" relative="1" as="geometry">
            <mxPoint as="offset" />
          </mxGeometry>
        </mxCell>
        <mxCell id="dO7zKge_xhxy4rsGCmZ1-40" style="rounded=0;orthogonalLoop=1;jettySize=auto;html=1;exitX=0.681;exitY=0.963;exitDx=0;exitDy=0;entryX=0;entryY=0;entryDx=0;entryDy=0;exitPerimeter=0;" parent="1" source="dO7zKge_xhxy4rsGCmZ1-15" target="dO7zKge_xhxy4rsGCmZ1-25" edge="1">
          <mxGeometry relative="1" as="geometry">
            <mxPoint x="582" y="451" as="sourcePoint" />
            <mxPoint x="663" y="513" as="targetPoint" />
          </mxGeometry>
        </mxCell>
        <mxCell id="dO7zKge_xhxy4rsGCmZ1-41" value="Include" style="edgeLabel;html=1;align=center;verticalAlign=middle;resizable=0;points=[];" parent="dO7zKge_xhxy4rsGCmZ1-40" vertex="1" connectable="0">
          <mxGeometry x="-0.0837" y="1" relative="1" as="geometry">
            <mxPoint as="offset" />
          </mxGeometry>
        </mxCell>
      </root>
    </mxGraphModel>
  </diagram>
</mxfile>
